<?xml version="1.0" encoding="UTF-8" standalone="no"?>
<svg
   version="1.1"
   width="702.1759"
   height="378.39066"
   id="svg33"
   sodipodi:docname="point_logo_yeni_kucuk.svg"
   inkscape:version="1.4.2 (f4327f4, 2025-05-13)"
   xmlns:inkscape="http://www.inkscape.org/namespaces/inkscape"
   xmlns:sodipodi="http://sodipodi.sourceforge.net/DTD/sodipodi-0.dtd"
   xmlns="http://www.w3.org/2000/svg"
   xmlns:svg="http://www.w3.org/2000/svg">
  <defs
     id="defs33" />
  <sodipodi:namedview
     id="namedview33"
     pagecolor="#ffffff"
     bordercolor="#000000"
     borderopacity="0.25"
     inkscape:showpageshadow="2"
     inkscape:pageopacity="0.0"
     inkscape:pagecheckerboard="0"
     inkscape:deskcolor="#d1d1d1"
     inkscape:zoom="0.44375"
     inkscape:cx="797.74648"
     inkscape:cy="77.746479"
     inkscape:window-width="1920"
     inkscape:window-height="1002"
     inkscape:window-x="-8"
     inkscape:window-y="-8"
     inkscape:window-maximized="1"
     inkscape:current-layer="svg33" />
  <path
     d="M 502.8237,0.11750697 C 554.69291,-1.595792 606.22831,15.387751 644.50819,53.602053 c 0.84541,0.86182 1.69081,1.72363 2.56184,2.61156 1.38666,1.34687 1.38666,1.34687 2.80133,2.72095 31.81041,32.02966 50.63005,78.376437 52.25453,124.675737 1.08445,53.02031 -15.47974,98.9731 -48.75607,138.01156 -31.07235,34.44944 -76.52381,55.61369 -121.16797,56.72714 -5.17807,0.0548 -10.35606,0.0432 -15.53431,0.0334 -2.00653,5.1e-4 -4.01305,0.002 -6.01958,0.003 -5.4904,0.003 -10.98079,-0.002 -16.47119,-0.008 -5.92947,-0.005 -11.85895,-0.003 -17.78842,-0.002 -10.26549,6.1e-4 -20.53098,-0.003 -30.79647,-0.01 -14.84208,-0.01 -29.68416,-0.0125 -44.52624,-0.014 -24.08175,-0.003 -48.1635,-0.0103 -72.24524,-0.0214 -23.38973,-0.0107 -46.77946,-0.019 -70.16918,-0.0239 -1.44235,-3.1e-4 -2.88469,-6.2e-4 -4.37074,-9.3e-4 -7.236,-0.002 -14.472,-0.003 -21.708,-0.004 -60.00619,-0.0121 -120.01238,-0.0326 -180.01857,-0.0587 -0.10607,-6.35531 -0.14082,-12.41332 1.09487,-18.66832 62.73937,-0.9681 125.47546,-1.28288 188.22037,-1.39583 7.26767,-0.0131 14.53533,-0.0272 21.80299,-0.042 39.88569,-0.0811 79.77137,-0.15707 119.6571,-0.20085 18.25245,-0.0204 36.50486,-0.054 54.75727,-0.099 11.14622,-0.0271 22.29237,-0.0436 33.43863,-0.0459 7.58332,-0.002 15.16657,-0.0176 22.74985,-0.0426 4.35378,-0.0139 8.7074,-0.0224 13.0612,-0.0155 20.8045,0.0288 40.81831,-0.38999 60.83454,-7.12784 0.89789,-0.29658 1.79578,-0.59315 2.72088,-0.89872 41.35047,-14.0736 75.36966,-42.44406 95.68084,-83.74679 18.40366,-39.03083 21.00433,-81.68685 8.96428,-123.40415 -7.54466,-24.0004 -18.93473,-44.487237 -35.30966,-62.937197 -1.91603,-2.40191 -1.91603,-2.40191 -3.0109,-5.90222 -1.44258,-0.81357 -2.905,-1.58775 -4.37949,-2.33354 -1.79869,-1.77351 -1.79869,-1.77351 -3.56262,-3.80112 -3.94084,-4.31686 -8.15477,-7.79683 -12.79205,-11.22104 -1.21915,-0.902 -1.21915,-0.902 -2.46293,-1.82222 -20.4969,-14.948904 -43.19574,-25.937341 -67.67738,-30.993185 -1.22789,-0.260198 -2.45577,-0.520397 -3.72086,-0.788481 -33.60802,-5.915503 -67.18902,-0.129633 -97.69177,15.300182 -1.65986,0.826563 -3.32045,1.65148 -4.98172,2.474828 -2.5375,1.257813 -5.07455,2.516548 -7.60933,3.780576 -8.55626,4.26504 -17.17147,8.3852 -25.79794,12.48584 -1.37881,0.65682 -2.75756,1.31379 -4.13624,1.97092 -3.11417,1.48361 -6.22893,2.96578 -9.34438,4.44631 0.97781,0.29061 0.97781,0.29061 1.97537,0.58709 2.94923,0.88469 5.89275,1.78929 8.8365,2.69445 1.53909,0.45685 1.53909,0.45685 3.10927,0.92294 0.98089,0.30456 1.96179,0.60913 2.97241,0.92293 0.90591,0.27496 1.81183,0.54991 2.7452,0.8332 2.25871,1.04001 2.25871,1.04001 4.44846,4.54032 0.73807,4.96614 0.82414,9.14975 -1.77917,13.41785 -4.4714,3.00949 -8.55429,3.23499 -13.63032,2.07091 -1.68734,-0.44688 -3.3709,-0.91019 -5.05095,-1.38725 -0.8986,-0.24679 -1.7972,-0.49358 -2.72302,-0.74785 -1.89362,-0.52472 -3.78549,-1.05666 -5.67565,-1.59538 -2.87754,-0.81565 -5.76216,-1.59602 -8.64885,-2.37399 -1.84527,-0.51594 -3.69004,-1.03393 -5.53424,-1.55417 -0.85555,-0.22877 -1.7111,-0.45753 -2.59258,-0.69323 -5.68865,-1.66131 -9.52571,-3.5462 -13.48837,-8.30366 -0.90272,-6.39163 0.66641,-12.67418 1.96307,-18.92811 0.20573,-1.00774 0.41147,-2.01549 0.62343,-3.05378 0.43654,-2.12003 0.87755,-4.23903 1.3228,-6.357001 0.67337,-3.226725 1.31742,-6.459121 1.96067,-9.692793 0.42946,-2.067337 0.86065,-4.134268 1.29375,-6.200744 0.28093,-1.438669 0.28093,-1.438669 0.56753,-2.906403 1.37318,-6.329887 3.20739,-10.131209 7.59697,-14.699972 3.28462,-0.802155 3.28462,-0.802155 6.56924,0 3.14776,2.406462 3.14776,2.406462 5.47437,5.833849 0.50679,6.546399 -0.69369,12.309764 -2.18975,18.595395 -0.31332,1.363788 -0.31332,1.363788 -0.63297,2.755127 -0.51108,2.219388 -1.03283,4.43598 -1.55678,6.651952 11.03067,-4.894433 21.97122,-9.963792 32.80771,-15.327524 0.86586,-0.427823 1.73172,-0.855646 2.62383,-1.296433 4.33872,-2.145504 8.67262,-4.301178 13.00029,-6.471874 15.09906,-7.521293 30.77053,-15.167411 47.30114,-18.178651 0.91827,-0.179356 1.83654,-0.358713 2.78263,-0.543505 7.784,-1.472626 15.39143,-2.31845103 23.29225,-2.61041903 z"
     fill="#e30613"
     id="path1"
     style="stroke-width:1.13025" />
  <path
     d="m 77.0517,167.71306 c 1.00462,0.01 2.00924,0.0194 3.04431,0.0293 16.74598,0.44318 28.78688,8.16315 40.22884,20.89504 13.56771,17.22676 16.6679,38.34226 15.43942,60.0932 -2.06008,20.01891 -9.53985,37.0687 -24.08721,50.17111 -11.67625,9.38111 -24.30072,12.05792 -38.59428,12.17816 -1.49516,0.0178 -1.49516,0.0178 -3.02052,0.0359 -10.13528,-0.13897 -18.08518,-3.31002 -27.36221,-7.54697 -0.36131,23.87211 -0.72261,47.74422 -1.09487,72.33973 -13.72971,0 -27.45942,0 -41.60518,0 0,-67.76599 0,-135.53199 0,-205.3515 13.72971,0 27.45942,0 41.60518,0 0,3.08027 0,6.16055 0,9.33416 0.82141,-0.54897 1.64282,-1.09795 2.48913,-1.66356 1.12061,-0.72645 2.24123,-1.4529 3.39581,-2.20136 1.0924,-0.71743 2.18479,-1.43486 3.31028,-2.17402 8.32945,-4.83784 16.87024,-6.25672 26.2513,-6.13922 z m -35.44652,41.34741 c -0.53256,2.73239 -0.53256,2.73239 -0.49451,5.95605 -0.0245,1.24241 -0.049,2.48483 -0.0742,3.76489 -0.007,1.34782 -0.0142,2.69565 -0.0215,4.08432 -0.0135,1.38133 -0.0271,2.76267 -0.041,4.18587 -0.0215,2.92772 -0.0337,5.85553 -0.0376,8.78333 -0.0154,4.48013 -0.0891,8.95644 -0.1652,13.4358 -0.0136,2.84171 -0.0237,5.68344 -0.0299,8.52517 -0.0293,1.34074 -0.0585,2.68148 -0.0887,4.06285 -0.12176,6.64263 -0.12176,6.64263 2.60238,12.33298 8.67582,6.78516 18.59717,7.16505 29.00664,6.0417 7.05017,-2.37703 12.50096,-7.37491 16.42309,-14.00124 1.71992,-3.8067 3.14884,-7.65258 4.3795,-11.6677 0.21311,-0.69185 0.42623,-1.38371 0.6458,-2.09654 2.40661,-13.7758 1.05278,-29.07745 -5.98331,-41.00102 -4.33259,-6.36841 -8.35574,-9.54848 -15.46508,-11.74062 -12.20134,-1.75619 -20.658,2.23081 -30.65645,9.33416 z"
     fill="#1d1d1b"
     id="path3"
     style="stroke-width:1.13025" />
  <path
     d="m 263.57574,184.88645 c 10.9238,9.45585 19.71837,23.99273 21.92526,38.98197 0.0861,0.88889 0.17219,1.77777 0.26089,2.6936 0.21382,1.78454 0.21382,1.78454 0.43196,3.60513 1.96402,20.44694 -1.3011,39.99531 -13.41647,56.49263 -12.76074,15.83206 -30.89857,24.32123 -50.30857,26.09736 -21.60347,1.31321 -42.18637,-3.6762 -58.95635,-18.81416 -13.59564,-13.61563 -20.00947,-29.9152 -20.65504,-49.5675 -0.25806,-21.06892 3.98754,-38.48463 17.81521,-54.27502 27.05998,-27.06575 73.24442,-28.53653 102.90311,-5.21401 z m -69.02191,21.47131 c -9.66564,15.14577 -9.73694,34.05089 -6.99693,51.48827 1.80258,8.80615 4.55849,17.60174 11.76989,22.8614 7.16962,4.39386 13.66642,5.5831 21.83758,4.19308 7.5262,-2.36094 12.26696,-6.27333 16.22637,-13.47254 3.79508,-8.40998 5.23502,-16.93251 5.6711,-26.19763 0.0452,-0.93552 0.0903,-1.87103 0.13686,-2.83489 0.32259,-13.4504 -1.41425,-28.82669 -10.26444,-39.09591 -5.60643,-5.40133 -11.72825,-7.76249 -19.34846,-7.41081 -7.60934,1.12795 -14.22966,3.86508 -19.03197,10.46903 z"
     fill="#1d1d1b"
     id="path6"
     style="stroke-width:1.13025" />
  <path
     d="m 477.1594,179.99149 c 10.24148,9.54976 14.10196,22.0119 15.53351,36.0696 0.36098,7.25464 0.25637,14.52397 0.21385,21.78578 -0.004,2.07273 -0.007,4.14546 -0.009,6.21819 -0.008,5.40908 -0.0297,10.81801 -0.0541,16.22703 -0.0265,6.51476 -0.0364,13.02956 -0.0492,19.54436 -0.0211,9.85551 -0.0631,19.7107 -0.10119,29.56623 -13.72971,0 -27.45941,0 -41.60518,0 0.0254,-5.60856 0.0508,-11.21713 0.077,-16.99564 0.0112,-3.5892 0.0217,-7.17836 0.0299,-10.76756 0.013,-5.67581 0.0282,-11.35152 0.0583,-17.02726 0.0241,-4.58458 0.037,-9.16907 0.0426,-13.75372 0.004,-1.73432 0.0118,-3.46863 0.0238,-5.20291 0.71805,-21.8248 0.71805,-21.8248 -6.80076,-41.2622 -4.24992,-4.11727 -8.8718,-4.22414 -14.39588,-4.06546 -7.49401,1.35654 -13.63148,7.40846 -18.45032,13.39962 -0.46881,0.55656 -0.93763,1.11313 -1.42065,1.68656 -5.64428,7.87573 -4.72511,16.84766 -4.54983,26.26122 0.013,1.80661 0.0234,3.61324 0.0313,5.41989 0.027,4.73261 0.0859,9.46414 0.1527,14.19629 0.0884,6.681 0.13294,13.36253 0.1825,20.04396 0.0265,3.55303 0.065,7.10555 0.1132,10.65831 0.018,1.6209 0.0359,3.2418 0.0538,4.8627 0.0284,2.11862 0.0284,2.11862 0.0574,4.28004 -0.0948,3.59908 -0.0948,3.59908 -1.1897,8.26616 -13.3684,0 -26.7368,0 -40.5103,0 0,-45.43402 0,-90.86804 0,-137.67885 13.3684,0 26.7368,0 40.5103,0 0.54196,8.08572 0.54196,8.08572 1.09488,16.33478 1.30974,-1.37168 2.61948,-2.74337 3.96891,-4.15662 18.96111,-18.02524 46.47032,-20.38299 66.99255,-3.9105 z"
     fill="#1d1d1b"
     id="path7"
     style="stroke-width:1.13025" />
  <path
     d="m 557.29043,128.55335 c 0,14.24626 0,28.49252 0,43.17048 15.17494,0 30.34988,0 45.98467,0 0,10.01089 0,20.02177 0,30.33602 -15.17494,0 -30.34988,0 -45.98467,0 0.0812,8.47039 0.17199,16.93938 0.28735,25.40915 0.0363,2.87887 0.067,5.75782 0.0919,8.63683 0.0369,4.14788 0.0942,8.29496 0.15531,12.44251 0.007,1.27895 0.014,2.5579 0.0212,3.8756 0.14922,8.35897 0.71088,15.68285 5.945,22.34026 9.90029,5.81349 20.55498,6.71139 31.33967,3.45587 2.72038,-0.86634 5.43457,-1.74999 8.14419,-2.65372 0.15868,4.59371 0.25614,9.18662 0.34215,13.78247 0.0459,1.30626 0.0917,2.61252 0.139,3.95836 0.0176,1.25211 0.0353,2.50423 0.0535,3.79428 0.0287,1.15482 0.0573,2.30964 0.0869,3.49946 -0.62148,2.96791 -0.62148,2.96791 -3.15765,5.03967 -17.84762,8.67752 -40.61969,9.77517 -59.05044,3.10578 -9.31535,-4.3993 -17.40882,-12.79089 -21.62375,-22.67909 -3.21563,-10.23674 -3.72994,-19.96221 -3.60538,-30.6824 0.005,-1.53405 0.009,-3.0681 0.0141,-4.64864 0.0124,-4.02814 0.0445,-8.05583 0.0811,-12.0838 0.0339,-4.13035 0.0487,-8.26077 0.0652,-12.39123 0.035,-8.06733 0.0926,-16.13427 0.16038,-24.20136 -6.14224,0 -12.28447,0 -18.61284,0 0,-9.33416 0,-9.33416 1.3301,-11.87735 0.62241,-0.65276 1.24482,-1.30551 1.88609,-1.97804 0.70145,-0.77158 1.40289,-1.54315 2.12559,-2.3381 0.76637,-0.81669 1.53274,-1.63339 2.32233,-2.47483 1.60697,-1.86168 3.20326,-3.73387 4.79007,-5.61508 0.83835,-0.98815 1.6767,-1.97631 2.54045,-2.9944 2.47466,-2.99922 4.83248,-6.06813 7.17655,-9.18376 4.47999,-5.90929 9.26597,-11.43323 14.1569,-16.95206 4.67623,-5.30881 8.97202,-10.81751 13.15505,-16.5789 3.0487,-3.62161 5.10964,-3.51398 9.64002,-3.51398 z"
     fill="#1d1d1b"
     id="path12"
     style="stroke-width:1.13025" />
  <path
     d="m 303.27986,171.72383 c 13.3684,0 26.7368,0 40.51031,0 0,45.43402 0,90.86804 0,137.67885 -13.3684,0 -26.73681,0 -40.51031,0 0,-45.43402 0,-90.86804 0,-137.67885 z"
     fill="#1d1d1b"
     id="path24"
     style="stroke-width:1.13025" />
  <path
     d="m 349.11484,83.404823 c 8.13128,6.87515 13.49867,14.21019 15.47792,25.313437 0.80864,14.23529 -0.0495,24.84467 -8.81031,36.08327 -7.52923,8.52111 -15.33023,12.92648 -26.35635,13.39108 -12.35109,0.20229 -21.29294,-2.39066 -30.47441,-11.6546 -8.52541,-10.71504 -10.84862,-22.96847 -9.90518,-36.65298 2.04832,-12.560477 8.95113,-21.886597 18.61284,-29.169247 13.43668,-7.22568 29.23068,-6.72356 41.45549,2.68904 z"
     fill="#e30613"
     id="path26"
     style="stroke-width:1.13025" />
  <path
     d="m 686.69075,20.116672 c 4.89273,3.59188 8.8463,7.863148 10.74344,13.928315 0.76385,8.380311 0.43287,14.210226 -4.37949,21.001856 -4.77176,4.82433 -8.7116,6.81141 -15.2598,7.36524 -5.29415,-0.19053 -9.05324,-1.74754 -12.84337,-5.83385 -5.50754,-6.69173 -6.29897,-10.8084 -6.20571,-19.803186 0.5317,-5.63321 2.06726,-9.257003 5.84218,-13.230989 6.74629,-5.485745 14.16339,-6.247622 22.10275,-3.427386 z m -24.2925,11.594776 c -2.16168,4.607252 -1.57475,10.146426 -1.09487,15.168005 2.35989,5.12287 5.2536,8.7263 9.85386,11.6677 5.12818,1.62273 9.54921,1.73674 14.50706,-0.51046 4.78557,-2.97829 7.59294,-6.83548 9.58014,-12.32401 1.15485,-5.780174 0.46071,-10.354367 -2.18974,-15.532621 -3.16019,-4.779664 -6.84397,-7.231807 -12.04361,-8.969543 -8.75818,-1.306663 -13.71236,3.488156 -18.61284,10.500929 z"
     fill="#1d1d1b"
     id="path32"
     style="stroke-width:1.13025" />
  <path
     d="m 670.06236,28.211138 c 13.65316,-0.43217 13.65316,-0.43217 16.30762,1.545059 1.88988,3.052983 1.62735,5.400811 1.21035,8.95587 -1.64231,2.187694 -1.64231,2.187694 -3.28462,3.50031 0.72262,1.106973 1.44524,2.213946 2.18975,3.354466 2.18975,3.64615 2.18975,3.64615 2.18975,5.97969 -2.94248,0.51046 -2.94248,0.51046 -6.56924,0 -1.73581,-1.95506 -2.98635,-3.96759 -4.29396,-6.26683 -1.0868,-2.09328 -1.0868,-2.09328 -3.37015,-3.067326 0,3.080276 0,6.160546 0,9.334156 -1.44524,0 -2.89047,0 -4.3795,0 0,-7.700678 0,-15.40136 0,-23.335395 z m 4.3795,4.66708 c 0,1.540136 0,3.080272 0,4.667079 2.16784,0 4.33569,0 6.56923,0 0,-1.540136 0,-3.080272 0,-4.667079 -2.16784,0 -4.33569,0 -6.56923,0 z"
     fill="#1d1d1b"
     id="path33"
     style="stroke-width:1.13025" />
</svg>
