<?xml version="1.0" encoding="UTF-8"?>
<svg version="1.1" xmlns="http://www.w3.org/2000/svg" width="2000" height="551">
<path d="M0 0 C47.37463349 -1.46841173 94.4443764 13.08762305 129.40722656 45.83984375 C130.179375 46.57847656 130.95152344 47.31710938 131.74707031 48.078125 C133.01357422 49.23248047 133.01357422 49.23248047 134.30566406 50.41015625 C163.35963067 77.86172702 180.54851195 117.584019 182.03222656 157.265625 C183.0227005 202.70758211 167.89383797 242.09220512 137.50097656 275.55078125 C109.12110725 305.07625997 67.60811447 323.21544322 26.83247054 324.1697408 C22.10309219 324.21673734 17.37378277 324.20678289 12.64424133 324.19837952 C10.81158581 324.19881608 8.97893035 324.19969256 7.14627522 324.20096868 C2.13162441 324.20319685 -2.88300491 324.19921539 -7.89765298 324.19419062 C-13.31332482 324.18986215 -18.7289955 324.19133425 -24.14466858 324.1920929 C-33.5206347 324.19261661 -42.89659385 324.18948571 -52.27255821 324.18385506 C-65.82854036 324.17571944 -79.38451914 324.17312272 -92.94050346 324.17186707 C-114.93551658 324.16967979 -136.930526 324.16302849 -158.92553711 324.15356445 C-180.28849272 324.14438195 -201.65144713 324.13730522 -223.0144043 324.13305664 C-224.33176638 324.13279392 -225.64912847 324.13253119 -227.00641062 324.13226051 C-233.61539313 324.13095545 -240.22437565 324.12969175 -246.83335817 324.12844861 C-301.63988457 324.11808609 -356.44640695 324.10047658 -411.25292969 324.078125 C-411.3498119 318.63119186 -411.38155144 313.43907833 -410.25292969 308.078125 C-352.95006254 307.24839421 -295.65019662 306.97860695 -238.34226759 306.88179775 C-231.70436041 306.8705618 -225.0664553 306.85846158 -218.42855072 306.84578705 C-181.9990474 306.77626445 -145.56955182 306.71116556 -109.14 306.67364247 C-92.46916424 306.65619878 -75.79837302 306.62738855 -59.12757289 306.5887531 C-48.9471895 306.56556456 -38.76687836 306.55137802 -28.58646832 306.54942547 C-21.66025681 306.54730976 -14.73411839 306.53432835 -7.80793978 306.51294614 C-3.83142666 306.50100202 0.1449414 306.49371016 4.12147141 306.49965858 C23.12322185 306.5243724 41.40279191 306.16541281 59.68457031 300.390625 C60.50465576 300.13643799 61.32474121 299.88225098 62.16967773 299.62036133 C99.93703946 287.55834474 131.00839418 263.24295757 149.55957031 227.84375 C166.36851233 194.39171337 168.74382766 157.83264584 157.74707031 122.078125 C150.85617387 101.50817129 140.45307579 83.94957871 125.49707031 68.13671875 C123.74707031 66.078125 123.74707031 66.078125 122.74707031 63.078125 C121.42949187 62.38083792 120.09379178 61.71731473 118.74707031 61.078125 C117.10424805 59.55810547 117.10424805 59.55810547 115.49316406 57.8203125 C111.89380802 54.12046925 108.04501971 51.13790513 103.80957031 48.203125 C102.69606201 47.43005005 102.69606201 47.43005005 101.56005859 46.64135742 C82.83925903 33.82914885 62.1073223 24.41132158 39.74707031 20.078125 C38.62558594 19.85511719 37.50410156 19.63210937 36.34863281 19.40234375 C5.65281793 14.33236084 -25.01831307 19.29123909 -52.87792969 32.515625 C-54.39396469 33.22404452 -55.91065907 33.93105449 -57.42797852 34.63671875 C-59.74559991 35.71474835 -62.06280665 36.79356922 -64.37794495 37.87692261 C-72.19278089 41.53234993 -80.06146249 45.06360646 -87.94042969 48.578125 C-89.19976354 49.14106827 -90.45904266 49.70413399 -91.71826172 50.26733398 C-94.56257572 51.53889294 -97.4074352 52.80921055 -100.25292969 54.078125 C-99.35985107 54.32719604 -99.35985107 54.32719604 -98.44873047 54.58129883 C-95.75505877 55.33953506 -93.06659617 56.11483651 -90.37792969 56.890625 C-88.97220703 57.28217773 -88.97220703 57.28217773 -87.53808594 57.68164062 C-86.6421875 57.94267578 -85.74628906 58.20371094 -84.82324219 58.47265625 C-83.9958252 58.70831299 -83.1684082 58.94396973 -82.31591797 59.18676758 C-80.25292969 60.078125 -80.25292969 60.078125 -78.25292969 63.078125 C-77.57881666 67.33444329 -77.50019704 70.92007478 -79.87792969 74.578125 C-83.96186758 77.1574542 -87.69097022 77.35072154 -92.32714844 76.35302734 C-93.8682808 75.97002738 -95.40595855 75.57293443 -96.94042969 75.1640625 C-97.76115967 74.95254547 -98.58188965 74.74102844 -99.42749023 74.52310181 C-101.15702517 74.07338901 -102.88495941 73.61747997 -104.61132812 73.15576172 C-107.23952703 72.45668996 -109.87418745 71.78785965 -112.51074219 71.12109375 C-114.1961151 70.6788977 -115.88102816 70.23494444 -117.56542969 69.7890625 C-118.34684326 69.59299408 -119.12825684 69.39692566 -119.93334961 69.19491577 C-125.12906831 67.77106457 -128.63363718 66.15558311 -132.25292969 62.078125 C-133.07742785 56.60006832 -131.64425927 51.21550406 -130.45996094 45.85546875 C-130.2720549 44.99176163 -130.08414886 44.1280545 -129.89054871 43.23817444 C-129.49184001 41.42116193 -129.08904142 39.60504254 -128.68237305 37.78979492 C-128.06735359 35.02427607 -127.47911763 32.25389562 -126.89160156 29.48242188 C-126.49935428 27.71057522 -126.10552652 25.93907755 -125.70996094 24.16796875 C-125.45337456 22.93493263 -125.45337456 22.93493263 -125.19160461 21.67698669 C-123.93741276 16.25184914 -122.26214598 12.99386116 -118.25292969 9.078125 C-115.25292969 8.390625 -115.25292969 8.390625 -112.25292969 9.078125 C-109.37792969 11.140625 -109.37792969 11.140625 -107.25292969 14.078125 C-106.79004675 19.68882731 -107.8865086 24.62841753 -109.25292969 30.015625 C-109.53910156 31.18448242 -109.53910156 31.18448242 -109.83105469 32.37695312 C-110.29784349 34.27911748 -110.77438105 36.17888509 -111.25292969 38.078125 C-101.17809412 33.88326464 -91.18557062 29.53848428 -81.28808594 24.94140625 C-80.49725113 24.57473343 -79.70641632 24.20806061 -78.89161682 23.83027649 C-74.9288531 21.99143604 -70.97049374 20.14387855 -67.01782227 18.28344727 C-53.22713696 11.83719508 -38.91363302 5.2839589 -23.81542969 2.703125 C-22.9767334 2.5494043 -22.13803711 2.39568359 -21.27392578 2.23730469 C-14.16442256 0.97516507 -7.21619534 0.25023651 0 0 Z " fill="#E30613" transform="translate(553.2529296875,109.921875)"/>
<path d="M0 0 C9.9 0 19.8 0 30 0 C35.97348705 6.39024196 35.97348705 6.39024196 37.046875 9.90234375 C39.17130115 15.85531339 42.37069875 21.09561749 45.57519531 26.52334595 C47.33594996 29.524153 49.0480926 32.55244567 50.765625 35.578125 C54.61915189 42.34345552 58.49449118 49.09611921 62.38299561 55.84140015 C63.35718605 57.5315933 64.33021525 59.2224556 65.30322266 60.91333008 C65.89151855 61.93322021 66.47981445 62.95311035 67.0859375 64.00390625 C67.6020459 64.89924072 68.1181543 65.7945752 68.64990234 66.71704102 C69.71133568 68.51188064 70.84333503 70.26500255 72 72 C78.63816661 60.92597617 84.98092358 49.70335597 91.23168945 38.40649414 C95.53725353 30.62660858 99.87370372 22.86532861 104.25 15.125 C104.78665283 14.1747998 105.32330566 13.22459961 105.8762207 12.24560547 C108.20514569 8.13140912 110.56697933 4.05503445 113 0 C122.9 0 132.8 0 143 0 C143 42.9 143 85.8 143 130 C132.11 130 121.22 130 110 130 C109.67 108.88 109.34 87.76 109 66 C105.4421875 72.496875 105.4421875 72.496875 101.8125 79.125 C99.40917969 83.42895508 99.40917969 83.42895508 98.37457275 85.27262878 C95.3140453 90.72745361 92.37585025 96.1959668 89.640625 101.82421875 C82.52515777 115.95685476 82.52515777 115.95685476 77.78613281 117.91455078 C72.66492679 118.84960837 68.02207045 118.19086221 63 117 C62.6189209 116.33806641 62.2378418 115.67613281 61.84521484 114.99414062 C60.02249878 111.82902984 58.19874329 108.664519 56.375 105.5 C55.776875 104.46101563 55.17875 103.42203125 54.5625 102.3515625 C47.75384999 90.54063901 40.86957939 78.77642182 34 67 C33.67 87.79 33.34 108.58 33 130 C22.11 130 11.22 130 0 130 C0 87.1 0 44.2 0 0 Z " fill="#1D1D1B" transform="translate(1371,302)"/>
<path d="M0 0 C0.9175708 0.00829834 1.8351416 0.01659668 2.78051758 0.02514648 C18.07541639 0.40498445 29.07295372 7.02151616 39.5234375 17.93359375 C51.91547517 32.69808473 54.74702724 50.79548487 53.625 69.4375 C51.74343248 86.59504386 44.91179553 101.2078586 31.625 112.4375 C20.96051945 120.47773665 9.42998794 122.77194585 -3.625 122.875 C-4.99060059 122.89022705 -4.99060059 122.89022705 -6.38378906 122.90576172 C-15.64082429 122.78665162 -22.90185035 120.06884985 -31.375 116.4375 C-31.705 136.8975 -32.035 157.3575 -32.375 178.4375 C-44.915 178.4375 -57.455 178.4375 -70.375 178.4375 C-70.375 120.3575 -70.375 62.2775 -70.375 2.4375 C-57.835 2.4375 -45.295 2.4375 -32.375 2.4375 C-32.375 5.0775 -32.375 7.7175 -32.375 10.4375 C-31.62476563 9.96699219 -30.87453125 9.49648438 -30.1015625 9.01171875 C-29.07804687 8.38910156 -28.05453125 7.76648438 -27 7.125 C-26.00226563 6.51011719 -25.00453125 5.89523437 -23.9765625 5.26171875 C-16.36887999 1.11536711 -8.5681657 -0.10070866 0 0 Z M-32.375 35.4375 C-32.86140889 37.77933897 -32.86140889 37.77933897 -32.82666016 40.54223633 C-32.8490274 41.60706741 -32.87139465 42.6718985 -32.8944397 43.76899719 C-32.90091522 44.92417343 -32.90739075 46.07934967 -32.9140625 47.26953125 C-32.92641937 48.45342941 -32.93877625 49.63732758 -32.95150757 50.85710144 C-32.97110941 53.36635375 -32.98231213 55.87568337 -32.98583984 58.38500977 C-32.99990759 62.22477803 -33.06719017 66.06127889 -33.13671875 69.90039062 C-33.14911862 72.33592299 -33.15833749 74.77147405 -33.1640625 77.20703125 C-33.19078033 78.3561348 -33.21749817 79.50523834 -33.24502563 80.68916321 C-33.35623525 86.38234315 -33.35623525 86.38234315 -30.8681488 91.25935364 C-22.94410524 97.0746963 -13.88246412 97.40028118 -4.375 96.4375 C2.06425586 94.40022131 7.04272912 90.11670993 10.625 84.4375 C12.19588327 81.17489628 13.50098295 77.87872143 14.625 74.4375 C14.81964844 73.84453125 15.01429688 73.2515625 15.21484375 72.640625 C17.41291529 60.83384073 16.17640005 47.71930111 9.75 37.5 C5.79283673 32.04184377 2.11830128 29.31631235 -4.375 27.4375 C-15.51906444 25.93232766 -23.24293766 29.34945844 -32.375 35.4375 Z " fill="#1D1D1B" transform="translate(164.375,253.5625)"/>
<path d="M0 0 C10.725 -0.0825 21.45 -0.165 32.5 -0.25 C37.52831055 -0.30462402 37.52831055 -0.30462402 42.65820312 -0.36035156 C45.36587894 -0.37205257 48.07356188 -0.38224103 50.78125 -0.390625 C51.46006226 -0.40107849 52.13887451 -0.41153198 52.83825684 -0.42230225 C69.13659539 -0.66013988 84.99377088 2.06150874 97.5625 13.2890625 C106.97181719 23.03884841 110.78791449 34.43556954 111.3125 47.8125 C110.94626537 62.18720925 106.26025681 73.98833972 96 84 C91.06478873 88 91.06478873 88 88 88 C90.53414709 93.27033325 93.25181345 98.12480443 96.5625 102.9375 C97.43713361 104.2311387 98.31079116 105.52543773 99.18359375 106.8203125 C99.63847168 107.49352539 100.09334961 108.16673828 100.56201172 108.86035156 C103.11398926 112.65755549 105.62454078 116.48123673 108.125 120.3125 C108.6104126 121.04782959 109.0958252 121.78315918 109.59594727 122.54077148 C113 127.76910578 113 127.76910578 113 130 C107.77211254 130.3737491 102.55211564 130.644126 97.31396484 130.82397461 C95.53784774 130.89896049 93.76264326 131.00101432 91.98974609 131.1315918 C77.72270402 132.15525407 77.72270402 132.15525407 73.26849365 128.62936401 C70.1416444 125.09579325 67.99279208 121.08624129 65.93389893 116.86434937 C64.69589421 114.39291135 63.18799502 112.15776289 61.6171875 109.88671875 C60.70221525 108.48757368 59.7881064 107.08786347 58.875 105.6875 C58.39546875 104.96111328 57.9159375 104.23472656 57.421875 103.48632812 C54 98.2313058 54 98.2313058 54 96 C47.73 96 41.46 96 35 96 C35 107.22 35 118.44 35 130 C23.45 130 11.9 130 0 130 C0 87.1 0 44.2 0 0 Z M35 30 C35 41.88 35 53.76 35 66 C39.145625 66.061875 43.29125 66.12375 47.5625 66.1875 C48.85615479 66.21481201 50.14980957 66.24212402 51.48266602 66.27026367 C59.42124752 66.32755304 64.54297276 65.84244462 70.8125 60.6875 C74.50614606 56.14959199 75.43563271 51.85788486 75.24609375 46.015625 C74.64854476 41.12141423 72.7868695 37.41523033 69.125 34.1875 C64.27838855 30.79487198 60.73252218 29.74647761 54.82421875 29.8046875 C53.78096436 29.80968262 52.73770996 29.81467773 51.6628418 29.81982422 C49.69504761 29.84713623 49.69504761 29.84713623 47.6875 29.875 C43.500625 29.91625 39.31375 29.9575 35 30 Z " fill="#1D1D1B" transform="translate(1761,302)"/>
<path d="M0 0 C32.01 0 64.02 0 97 0 C97 9.57 97 19.14 97 29 C76.87 29 56.74 29 36 29 C36 35.93 36 42.86 36 50 C53.82 50 71.64 50 90 50 C90 59.24 90 68.48 90 78 C72.18 78 54.36 78 36 78 C36 85.59 36 93.18 36 101 C56.79 101 77.58 101 99 101 C99 110.57 99 120.14 99 130 C66.33 130 33.66 130 0 130 C0 87.1 0 44.2 0 0 Z " fill="#1D1D1B" transform="translate(1254,302)"/>
<path d="M0 0 C9.9772286 8.10428958 18.00973334 20.5633767 20.02539062 33.41015625 C20.10402344 34.17199219 20.18265625 34.93382812 20.26367188 35.71875 C20.45896484 37.24822266 20.45896484 37.24822266 20.65820312 38.80859375 C22.45203866 56.33298704 19.46984368 73.08725269 8.40429688 87.2265625 C-3.25069594 100.79569648 -19.81684669 108.07148236 -37.54492188 109.59375 C-57.27640838 110.71925369 -76.07575717 106.44299834 -91.39257812 93.46875 C-103.81013023 81.7992432 -109.66818185 67.8294196 -110.2578125 50.98608398 C-110.49350948 32.92860854 -106.61580526 18.00217744 -93.98632812 4.46875 C-69.27115639 -18.72840735 -27.08870239 -19.98896374 0 0 Z M-63.04101562 18.40234375 C-71.86910042 31.383285 -71.93422473 47.58624069 -69.43164062 62.53125 C-67.78525823 70.07871087 -65.26815741 77.61711779 -58.68164062 82.125 C-52.13327962 85.89083061 -46.19943943 86.91009099 -38.73632812 85.71875 C-31.86229409 83.69526674 -27.53232886 80.34208176 -23.91601562 74.171875 C-20.4497882 66.96395837 -19.13461448 59.65958417 -18.73632812 51.71875 C-18.69507813 50.91695312 -18.65382813 50.11515625 -18.61132812 49.2890625 C-18.31668549 37.76116956 -19.90302532 24.58265943 -27.98632812 15.78125 C-33.10695263 11.15194341 -38.69830322 9.12827451 -45.65820312 9.4296875 C-52.60817506 10.39641292 -58.654828 12.74232319 -63.04101562 18.40234375 Z " fill="#1D1D1B" transform="translate(334.736328125,268.28125)"/>
<path d="M0 0 C9.35403611 8.1847816 12.87998962 18.86567091 14.1875 30.9140625 C14.51719646 37.13177819 14.42165414 43.36208111 14.3828125 49.5859375 C14.37907421 51.36240478 14.3762311 53.13887414 14.37423706 54.91534424 C14.36666482 59.55128854 14.34707274 64.18710403 14.3248291 68.82299805 C14.30059856 74.40657897 14.29155912 79.99020338 14.27992249 85.57382202 C14.26064354 94.02065796 14.2222766 102.46721222 14.1875 110.9140625 C1.6475 110.9140625 -10.8925 110.9140625 -23.8125 110.9140625 C-23.78929687 106.10714844 -23.76609375 101.30023438 -23.7421875 96.34765625 C-23.73194809 93.27147885 -23.72231875 90.19532297 -23.71484375 87.11914062 C-23.70296633 82.25459334 -23.68903709 77.39012254 -23.66162109 72.52563477 C-23.63961868 68.59634129 -23.62787476 64.66713002 -23.62274551 60.73777962 C-23.61909821 59.25135062 -23.61197897 57.76492525 -23.60103989 56.27853203 C-22.94520309 37.57321478 -22.94520309 37.57321478 -29.8125 20.9140625 C-33.69415013 17.38528966 -37.9155388 17.29369293 -42.9609375 17.4296875 C-49.8055788 18.5923389 -55.41122385 23.77924033 -59.8125 28.9140625 C-60.24069031 29.39107605 -60.66888062 29.8680896 -61.11004639 30.35955811 C-66.26524393 37.10958581 -65.42571635 44.79913205 -65.265625 52.8671875 C-65.25373933 54.41557216 -65.2442369 55.96397677 -65.23699951 57.51239014 C-65.2123682 61.56856074 -65.15855775 65.6237992 -65.09753418 69.67956543 C-65.01679027 75.40563121 -64.97611096 81.13214654 -64.93084717 86.85858154 C-64.90667628 89.90376526 -64.87151039 92.94851127 -64.82745361 95.99346924 C-64.81103838 97.38268999 -64.7946587 98.77191116 -64.77832031 100.16113281 C-64.75236786 101.97692841 -64.75236786 101.97692841 -64.72589111 103.82940674 C-64.8125 106.9140625 -64.8125 106.9140625 -65.8125 110.9140625 C-78.0225 110.9140625 -90.2325 110.9140625 -102.8125 110.9140625 C-102.8125 71.9740625 -102.8125 33.0340625 -102.8125 -7.0859375 C-90.6025 -7.0859375 -78.3925 -7.0859375 -65.8125 -7.0859375 C-65.3175 -0.1559375 -65.3175 -0.1559375 -64.8125 6.9140625 C-63.61625 5.7384375 -62.42 4.5628125 -61.1875 3.3515625 C-43.86940756 -12.09727552 -18.74393625 -14.11802891 0 0 Z " fill="#1D1D1B" transform="translate(529.8125,264.0859375)"/>
<path d="M0 0 C31.68 0 63.36 0 96 0 C96 9.57 96 19.14 96 29 C75.87 29 55.74 29 35 29 C35 35.93 35 42.86 35 50 C52.82 50 70.64 50 89 50 C89 59.24 89 68.48 89 78 C71.18 78 53.36 78 35 78 C35 85.59 35 93.18 35 101 C56.12 101 77.24 101 99 101 C99 110.57 99 120.14 99 130 C66.33 130 33.66 130 0 130 C0 87.1 0 44.2 0 0 Z " fill="#1D1D1B" transform="translate(1644,302)"/>
<path d="M0 0 C-1.76168672 6.67763155 -4.0961911 13.11940332 -6.5625 19.5625 C-6.86744385 20.37251465 -7.1723877 21.1825293 -7.48657227 22.01708984 C-7.78104248 22.77586426 -8.0755127 23.53463867 -8.37890625 24.31640625 C-8.6426001 25.00162354 -8.90629395 25.68684082 -9.17797852 26.39282227 C-10 28 -10 28 -12 29 C-14.01221977 28.15836463 -15.98616386 27.22450794 -17.9375 26.25 C-30.11893171 20.52539275 -44.62293802 16.72043391 -57.9375 21.3125 C-61.20304787 22.80511123 -61.20304787 22.80511123 -63 26 C-63.58342353 29.45769191 -63.58342353 29.45769191 -63 33 C-59.73643832 36.14658814 -56.75988358 37.68855561 -52.4375 38.9375 C-51.303125 39.2675 -50.16875 39.5975 -49 39.9375 C-45.20165936 40.97058651 -41.37701079 41.88645711 -37.55004883 42.80664062 C-22.46394088 46.44952474 -8.30219845 50.68622847 1 64 C5.98428845 73.79670488 6.30795907 84.1969991 3.375 94.6875 C0.02956718 104.57173334 -6.42353404 112.26083831 -15.53515625 117.44140625 C-26.66325937 122.80531207 -37.66309096 124.56509219 -49.9375 124.5 C-51.20150635 124.49427979 -52.4655127 124.48855957 -53.76782227 124.48266602 C-70.03208081 124.17691978 -86.18964345 121.03561312 -100 112 C-100.66 111.01 -101.32 110.02 -102 109 C-101.21728516 106.27270508 -101.21728516 106.27270508 -99.7890625 103.01953125 C-99.28632812 101.85615234 -98.78359375 100.69277344 -98.265625 99.49414062 C-97.71904589 98.26679527 -97.17216698 97.03958339 -96.625 95.8125 C-96.08467404 94.57411821 -95.54559548 93.33519136 -95.0078125 92.09570312 C-93.68407776 89.05820467 -92.34774716 86.02690237 -91 83 C-86.81977762 83 -83.77948562 84.97704891 -80.125 86.8125 C-67.2683793 93.01343373 -51.35832429 97.4909743 -37.1875 92.75 C-33.23797122 90.64812731 -33.23797122 90.64812731 -31 87 C-30.75949193 83.94109858 -30.75949193 83.94109858 -32 81 C-38.1546239 75.18729965 -47.64840423 73.84113829 -55.6484375 71.8125 C-87.08899312 63.83917509 -87.08899312 63.83917509 -96.19140625 49.06640625 C-100.63968927 40.12334248 -100.41465643 28.445429 -98.3046875 18.83203125 C-94.10853443 7.46010381 -85.54371837 -0.7911394 -74.74609375 -5.90234375 C-51.21677793 -15.30737611 -21.95013228 -12.3469494 0 0 Z " fill="#1D1D1B" transform="translate(1126,310)"/>
<path d="M0 0 C-0.6013634 6.19298795 -3.08088748 11.62196303 -5.4375 17.3125 C-5.84548828 18.32634766 -6.25347656 19.34019531 -6.67382812 20.38476562 C-7.06892578 21.34705078 -7.46402344 22.30933594 -7.87109375 23.30078125 C-8.41141235 24.61816284 -8.41141235 24.61816284 -8.96264648 25.9621582 C-10 28 -10 28 -12 29 C-14.01221977 28.15836463 -15.98616386 27.22450794 -17.9375 26.25 C-26.99585452 21.99306837 -34.7578135 19.76061132 -44.75 19.625 C-45.45930664 19.61098145 -46.16861328 19.59696289 -46.89941406 19.58251953 C-52.6804528 19.63532059 -57.53172539 20.84025972 -62 24.75 C-63.63168634 28.42129427 -63.38829429 30.23177265 -62 34 C-55.14615241 38.89715979 -46.67959615 40.61276839 -38.625 42.5 C-24.23509399 45.89445864 -7.97348203 49.93266411 0.78125 62.89453125 C6.06563594 72.0236467 6.61436575 83.07892428 4.23828125 93.265625 C-0.04060654 105.64564816 -7.87095204 113.88566037 -19.484375 119.67578125 C-29.34910991 123.39149807 -38.61834307 124.52482842 -49.125 124.4375 C-50.39529053 124.43065186 -51.66558105 124.42380371 -52.97436523 124.41674805 C-70.37134997 124.12158411 -86.05783945 120.16905306 -101 111 C-100.43093823 106.77968545 -99.44043969 103.27086411 -97.71484375 99.3828125 C-97.26689453 98.36445313 -96.81894531 97.34609375 -96.35742188 96.296875 C-95.65456055 94.72679687 -95.65456055 94.72679687 -94.9375 93.125 C-94.46505859 92.05507813 -93.99261719 90.98515625 -93.50585938 89.8828125 C-92.34332699 87.2524362 -91.17455398 84.62502483 -90 82 C-88.9584375 82.53109375 -87.916875 83.0621875 -86.84375 83.609375 C-71.39874243 91.3009815 -54.08581336 97.91255258 -36.6875 92.6875 C-33.43601368 91.51696492 -33.048014 91.072021 -31 88 C-30.41654524 85.04253508 -30.41654524 85.04253508 -31 82 C-37.94019284 73.86322219 -53.35910927 72.22777763 -63.24023438 69.8203125 C-76.55066373 66.4037317 -88.52267747 61.17344339 -95.95703125 49.22265625 C-100.26425623 40.04358879 -100.44714237 28.40021195 -97.9375 18.625 C-93.8341979 7.26934999 -85.55178795 -0.36219312 -75 -5.75 C-50.88588861 -15.96898706 -22.66320934 -11.51572232 0 0 Z " fill="#1D1D1B" transform="translate(954,310)"/>
<path d="M0 0 C8.25 0 16.5 0 25 0 C25 22.77 25 45.54 25 69 C38.2 69 51.4 69 65 69 C65.495 75.93 65.495 75.93 66 83 C75.70075635 60.29395502 85.30578218 37.551844 94.72827148 14.72875977 C95.07554794 13.88804428 95.4228244 13.0473288 95.78062439 12.18113708 C96.4308594 10.60639177 97.08036546 9.0313452 97.72901917 7.45594788 C99.88965106 2.22069788 99.88965106 2.22069788 101 0 C109.25 0 117.5 0 126 0 C131.01196426 10.61909928 135.53867658 21.39130001 140 32.25 C141.49661058 35.88367583 142.99559421 39.51636594 144.49609375 43.1484375 C144.87116562 44.05647125 145.24623749 44.964505 145.63267517 45.90005493 C148.12511421 51.92103969 150.65738725 57.92376807 153.22265625 63.9140625 C153.71552628 65.06642395 153.71552628 65.06642395 154.21835327 66.24206543 C155.76653273 69.85891158 157.32120764 73.47278432 158.88476562 77.08300781 C159.43507184 78.36515885 159.98521216 79.6473811 160.53515625 80.9296875 C161.013479 82.03554199 161.49180176 83.14139648 161.98461914 84.28076172 C163 87 163 87 163 90 C154.42 90 145.84 90 137 90 C136.01 87.40125 135.02 84.8025 134 82.125 C133.68675781 81.30789551 133.37351562 80.49079102 133.05078125 79.64892578 C131 74.22222222 131 74.22222222 131 72 C119.45 72 107.9 72 96 72 C95.01 75.3 94.02 78.6 93 82 C92.01 84.64 91.02 87.28 90 90 C60.3 90 30.6 90 0 90 C0 60.3 0 30.6 0 0 Z M113 27 C111.49172203 30.76757497 109.99481006 34.53956349 108.5 38.3125 C108.07074219 39.38435547 107.64148437 40.45621094 107.19921875 41.56054688 C106.59013672 43.10258789 106.59013672 43.10258789 105.96875 44.67578125 C105.40317383 46.0975769 105.40317383 46.0975769 104.82617188 47.5480957 C103.84034418 50.04259941 103.84034418 50.04259941 104 53 C110.27 53 116.54 53 123 53 C122.26006651 49.30033256 121.48783502 46.37328742 120.15234375 42.91796875 C119.79462891 41.98662109 119.43691406 41.05527344 119.06835938 40.09570312 C118.50858398 38.65614258 118.50858398 38.65614258 117.9375 37.1875 C117.56044922 36.20845703 117.18339844 35.22941406 116.79492188 34.22070312 C115.86684405 31.8123999 114.93509884 29.40558386 114 27 C113.67 27 113.34 27 113 27 Z " fill="#1D1D1B" transform="translate(1225,133)"/>
<path d="M0 0 C0 12.21 0 24.42 0 37 C13.86 37 27.72 37 42 37 C42 45.58 42 54.16 42 63 C28.14 63 14.28 63 0 63 C0.07413069 70.2596953 0.15708565 77.5181887 0.26245117 84.77734375 C0.29562363 87.24472749 0.32367926 89.71218571 0.34643555 92.1796875 C0.38012213 95.73469666 0.43244702 99.28902798 0.48828125 102.84375 C0.49467117 103.93989624 0.5010611 105.03604248 0.50764465 106.16540527 C0.64393747 113.32960183 1.15692797 119.60665596 5.9375 125.3125 C14.97991041 130.29505268 24.71134474 131.06460955 34.56152344 128.27441406 C37.04617412 127.53190494 39.52517149 126.77455542 42 126 C42.14492719 129.93711437 42.23394537 133.87354625 42.3125 137.8125 C42.35439453 138.93205078 42.39628906 140.05160156 42.43945312 141.20507812 C42.45556641 142.27822266 42.47167969 143.35136719 42.48828125 144.45703125 C42.51446533 145.44678955 42.54064941 146.43654785 42.56762695 147.45629883 C42 150 42 150 39.68359375 151.77563477 C23.38251243 159.21285482 2.58368659 160.15361164 -14.25 154.4375 C-22.75815212 150.66700095 -30.15030419 143.47484497 -34 135 C-36.93698833 126.2264263 -37.40673562 117.89104875 -37.29296875 108.703125 C-37.28872391 107.38834167 -37.28447906 106.07355835 -37.28010559 104.71893311 C-37.26879051 101.26654125 -37.23944324 97.81454353 -37.20599365 94.36230469 C-37.17500037 90.82231982 -37.16153854 87.28226967 -37.14648438 83.7421875 C-37.1145566 76.82794928 -37.06190251 69.91403429 -37 63 C-42.61 63 -48.22 63 -54 63 C-54 55 -54 55 -52.78515625 52.8203125 C-52.21667969 52.26085937 -51.64820313 51.70140625 -51.0625 51.125 C-50.42183594 50.46371094 -49.78117188 49.80242187 -49.12109375 49.12109375 C-48.42113281 48.42113281 -47.72117187 47.72117187 -47 47 C-45.53227828 45.40441868 -44.07430903 43.79982445 -42.625 42.1875 C-41.85929688 41.34058594 -41.09359375 40.49367188 -40.3046875 39.62109375 C-38.04446055 37.05056446 -35.89094763 34.42030281 -33.75 31.75 C-29.65821422 26.68534208 -25.28694616 21.95095564 -20.81982422 17.22094727 C-16.54880423 12.67094441 -12.62524989 7.94961543 -8.8046875 3.01171875 C-6.02016596 -0.09223925 -4.1378122 0 0 0 Z " fill="#1D1D1B" transform="translate(603,220)"/>
<path d="M0 0 C36.63 0 73.26 0 111 0 C111 9.9 111 19.8 111 30 C98.46 30 85.92 30 73 30 C73 63 73 96 73 130 C61.45 130 49.9 130 38 130 C38 97 38 64 38 30 C25.46 30 12.92 30 0 30 C0 20.1 0 10.2 0 0 Z " fill="#1D1D1B" transform="translate(1132,302)"/>
<path d="M0 0 C11.55 0 23.1 0 35 0 C35 33 35 66 35 100 C54.14 100 73.28 100 93 100 C93 109.9 93 119.8 93 130 C62.31 130 31.62 130 0 130 C0 87.1 0 44.2 0 0 Z " fill="#1D1D1B" transform="translate(1538,302)"/>
<path d="M0 0 C21 0 21 0 25.62109375 4.40625 C27.11474609 7.31835938 27.11474609 7.31835938 28.4375 10.5 C29.51962381 12.68874354 30.60434276 14.8762056 31.69140625 17.0625 C32.22266113 18.19945312 32.75391602 19.33640625 33.30126953 20.5078125 C36.15231831 26.36889353 39.5336381 31.90893714 42.875 37.5 C44.06233544 39.52982493 45.24746295 41.56094411 46.4296875 43.59375 C46.92710449 44.44646484 47.42452148 45.29917969 47.93701172 46.17773438 C48.28779785 46.77908203 48.63858398 47.38042969 49 48 C51.88645574 44.55695781 54.19623725 41.10479573 56.35546875 37.16796875 C57.2834729 35.48537964 57.2834729 35.48537964 58.23022461 33.76879883 C58.88270297 32.57506164 59.53512718 31.38129486 60.1875 30.1875 C60.85697968 28.97065906 61.52698538 27.75410738 62.19750977 26.5378418 C63.52192206 24.13514052 64.84453158 21.73146128 66.16601562 19.32714844 C68.5650756 14.97486018 70.99447634 10.64022288 73.4375 6.3125 C74.613125 4.229375 75.78875 2.14625 77 0 C83.93 0 90.86 0 98 0 C98.13242785 8.19080318 98.26315492 16.38162867 98.39115143 24.57250214 C98.45069315 28.37875508 98.51088704 32.18499502 98.57275391 35.99121094 C98.86490733 53.99663281 99.05717038 71.99132909 99 90 C91.41 90 83.82 90 76 90 C75.67 75.48 75.34 60.96 75 46 C70.66107334 53.77611379 70.66107334 53.77611379 66.32568359 61.55419922 C65.15162496 63.65451662 63.96196732 65.7461554 62.76074219 67.83105469 C60.97759327 70.93715007 60.97759327 70.93715007 59.62207031 74.05175781 C58.28212629 76.83471847 57.2514533 78.87881061 55 81 C50.87580635 81.83093001 47.14490365 81.60362675 43 81 C40.9368208 77.42548451 38.87384036 73.85085438 36.81103516 70.27612305 C36.11089299 69.06287623 35.41069878 67.84965944 34.71044922 66.63647461 C33.69745039 64.88142885 32.68464575 63.12627114 31.671875 61.37109375 C31.0644043 60.31849365 30.45693359 59.26589355 29.83105469 58.18139648 C27.88014055 54.7917482 25.94039054 51.39568344 24 48 C23.67 61.86 23.34 75.72 23 90 C15.41 90 7.82 90 0 90 C0 60.3 0 30.6 0 0 Z " fill="#1D1D1B" transform="translate(1719,133)"/>
<path d="M0 0 C21 0 21 0 27.5 6.4375 C29.1027832 8.6315918 29.1027832 8.6315918 30.23828125 10.57421875 C33.0856724 15.22072321 36.33754409 19.45786899 39.6875 23.75 C40.69208907 25.07760859 41.69599999 26.40573062 42.69921875 27.734375 C46.69849047 32.90266461 50.86183141 37.94223839 55 43 C55.33 28.81 55.66 14.62 56 0 C64.25 0 72.5 0 81 0 C81 29.7 81 59.4 81 90 C60 90 60 90 53.5 83.5625 C51.89501953 81.36401367 51.89501953 81.36401367 50.7578125 79.41796875 C47.93498732 74.81117537 44.70560867 70.62269743 41.375 66.375 C40.38041492 65.07213929 39.38824188 63.76743388 38.3984375 62.4609375 C33.95258109 56.62511219 29.47307086 50.81499212 25 45 C24.67 59.85 24.34 74.7 24 90 C16.08 90 8.16 90 0 90 C0 60.3 0 30.6 0 0 Z " fill="#1D1D1B" transform="translate(1394,133)"/>
<path d="M0 0 C8.3325 -0.0825 16.665 -0.165 25.25 -0.25 C27.85551758 -0.28641602 30.46103516 -0.32283203 33.14550781 -0.36035156 C35.24803854 -0.37205161 37.35057844 -0.3822403 39.453125 -0.390625 C41.04519775 -0.4213208 41.04519775 -0.4213208 42.66943359 -0.45263672 C54.9151362 -0.45825144 66.81955535 3.49272203 76 11.8125 C85.84247736 22.33376891 88.48458037 34.19012558 88.24609375 48.21875 C87.47004658 60.14277643 83.49792391 70.04370266 74.75 78.3125 C53.9869559 95.58595686 25.07068728 90 0 90 C0 60.3 0 30.6 0 0 Z M25 21 C25 36.51 25 52.02 25 68 C43.76250708 69.55352887 43.76250708 69.55352887 57.8125 61.25 C62.63270707 54.0885495 63.91871492 47.62081806 63 39 C61.74052754 33.32749227 59.22462033 29.04094118 55 25 C44.44313588 19.57851537 44.44313588 19.57851537 25 21 Z " fill="#1D1D1B" transform="translate(1490,133)"/>
<path d="M0 0 C7.87875 -0.061875 15.7575 -0.12375 23.875 -0.1875 C26.34210449 -0.21481201 28.80920898 -0.24212402 31.35107422 -0.27026367 C33.33560702 -0.2790364 35.32014528 -0.28667847 37.3046875 -0.29296875 C38.31152588 -0.30831665 39.31836426 -0.32366455 40.35571289 -0.33947754 C50.90405687 -0.34332636 59.85645335 2.12010714 68 9 C74.67135957 15.77332359 77.08660711 23.62723094 77.375 33 C77.04815007 43.21079166 74.07904051 50.57423098 67 58 C65.35608879 59.36129037 63.69413444 60.70174577 62 62 C63.8922954 65.0230628 65.78948217 68.04302732 67.6875 71.0625 C68.21794922 71.91005859 68.74839844 72.75761719 69.29492188 73.63085938 C71.73058339 77.50102092 74.18563566 81.31065802 76.89453125 84.99609375 C79 88 79 88 79 90 C70.13671386 91.23802213 60.71745046 92.5002223 52 90 C46.11241965 85.53131968 42.91989048 78.82087667 39.99194336 72.17651367 C38.971921 69.78488217 38.971921 69.78488217 37 67 C34.11404054 66.41518879 34.11404054 66.41518879 30.875 66.3125 C28.93625 66.209375 26.9975 66.10625 25 66 C25 73.92 25 81.84 25 90 C16.75 90 8.5 90 0 90 C0 60.3 0 30.6 0 0 Z M25 20 C25 28.25 25 36.5 25 45 C28.01125 45.0825 31.0225 45.165 34.125 45.25 C35.06230957 45.28641602 35.99961914 45.32283203 36.96533203 45.36035156 C42.4812424 45.43319213 45.65325189 44.72872705 50 41 C52.49064876 37.20988233 52.22710591 33.50061094 51.59765625 29.15234375 C50.62055308 25.63349507 48.9234905 24.09728666 46 22 C39.33339866 19.02130579 32.17907848 19.86325565 25 20 Z " fill="#1D1D1B" transform="translate(1630,133)"/>
<path d="M0 0 C8.25 0 16.5 0 25 0 C25 10.89 25 21.78 25 33 C35.56 33 46.12 33 57 33 C57 22.11 57 11.22 57 0 C64.92 0 72.84 0 81 0 C81 29.7 81 59.4 81 90 C73.08 90 65.16 90 57 90 C57 78.45 57 66.9 57 55 C46.44 55 35.88 55 25 55 C25 66.55 25 78.1 25 90 C16.75 90 8.5 90 0 90 C0 60.3 0 30.6 0 0 Z " fill="#1D1D1B" transform="translate(857,133)"/>
<path d="M0 0 C4.95 0 9.9 0 15 0 C15 106.92 15 213.84 15 324 C10.05 324 5.1 324 0 324 C0 217.08 0 110.16 0 0 Z " fill="#1D1D1B" transform="translate(788,110)"/>
<path d="M0 0 C1.5631897 0.00785522 1.5631897 0.00785522 3.15795898 0.01586914 C4.28266602 0.0190918 5.40737305 0.02231445 6.56616211 0.02563477 C7.75016602 0.03401367 8.93416992 0.04239258 10.15405273 0.05102539 C11.34192383 0.05553711 12.52979492 0.06004883 13.75366211 0.06469727 C16.69967499 0.07652864 19.64558954 0.09301252 22.59155273 0.11352539 C23.35309638 1.93276855 24.11463854 3.75201234 24.87617493 5.57125854 C25.57080299 7.23063106 26.26545523 8.88999345 26.96012878 10.54934692 C28.937353 15.27241207 30.9141279 19.99566451 32.89013672 24.71923828 C36.74780283 33.93958818 40.60825403 43.15871753 44.48431396 52.37135315 C46.14365268 56.31568776 47.80093475 60.26088499 49.45806885 64.20614624 C50.25403435 66.09950423 51.05102813 67.99243027 51.84906006 69.88491821 C52.96503425 72.53165424 54.07749025 75.17984345 55.18920898 77.82836914 C55.52067429 78.61188751 55.85213959 79.39540588 56.19364929 80.20266724 C56.49648331 80.92598236 56.79931732 81.64929749 57.11132812 82.39453125 C57.37458389 83.01984238 57.63783966 83.6451535 57.90907288 84.28941345 C58.59155273 86.11352539 58.59155273 86.11352539 59.59155273 90.11352539 C51.01155273 90.11352539 42.43155273 90.11352539 33.59155273 90.11352539 C28.59155273 78.11352539 28.59155273 78.11352539 26.59155273 73.11352539 C15.37155273 73.11352539 4.15155273 73.11352539 -7.40844727 73.11352539 C-9.34102364 78.33299512 -9.34102364 78.33299512 -11.26757812 83.5546875 C-13.29733615 89.00241428 -13.29733615 89.00241428 -14.40844727 90.11352539 C-16.26214338 90.20090184 -18.11912267 90.22050692 -19.97485352 90.21118164 C-21.09956055 90.20795898 -22.22426758 90.20473633 -23.38305664 90.20141602 C-24.56706055 90.19303711 -25.75106445 90.1846582 -26.97094727 90.17602539 C-28.15881836 90.17151367 -29.34668945 90.16700195 -30.57055664 90.16235352 C-33.51656953 90.15052214 -36.46248407 90.13403826 -39.40844727 90.11352539 C-38.71713448 85.51262297 -37.01930207 81.42619376 -35.22485352 77.16821289 C-34.89742661 76.38100861 -34.56999969 75.59380432 -34.23265076 74.78274536 C-33.14988835 72.18278109 -32.06053891 69.58563425 -30.97094727 66.98852539 C-30.21473027 65.17747676 -29.45887655 63.3662764 -28.70336914 61.55493164 C-27.107828 57.73189731 -25.50937432 53.91009784 -23.90893555 50.08911133 C-21.79284096 45.03545655 -19.68491806 39.97843995 -17.57981873 34.92019653 C-15.92509369 30.94469413 -14.26800688 26.97017925 -12.61032104 22.99591064 C-11.80884301 21.07377164 -11.008001 19.15136731 -10.20779419 17.22869873 C-9.08962298 14.54344589 -7.96824154 11.85955712 -6.84594727 9.17602539 C-6.51130966 8.37069366 -6.17667206 7.56536194 -5.83189392 6.73562622 C-3.06863928 0.14464443 -3.06863928 0.14464443 0 0 Z M8.59155273 28.11352539 C7.08891354 32.0917005 5.58988321 36.07122566 4.09155273 40.05102539 C3.44766602 41.75548828 3.44766602 41.75548828 2.79077148 43.49438477 C2.3847168 44.57397461 1.97866211 45.65356445 1.56030273 46.76586914 C1.18325195 47.76610107 0.80620117 48.76633301 0.41772461 49.796875 C-0.46443101 51.86058174 -0.46443101 51.86058174 -0.40844727 53.11352539 C6.19155273 53.11352539 12.79155273 53.11352539 19.59155273 53.11352539 C18.46793385 49.88387219 17.34271113 46.65479302 16.21655273 43.42602539 C15.89944336 42.51401367 15.58233398 41.60200195 15.25561523 40.66235352 C14.94624023 39.77612305 14.63686523 38.88989258 14.31811523 37.97680664 C14.03532715 37.1651001 13.75253906 36.35339355 13.46118164 35.51708984 C12.55959075 33.02518578 11.58883545 30.56852211 10.59155273 28.11352539 C9.93155273 28.11352539 9.27155273 28.11352539 8.59155273 28.11352539 Z " fill="#1D1D1B" transform="translate(1160.408447265625,132.886474609375)"/>
<path d="M0 0 C8.25 0 16.5 0 25 0 C28.96298165 8.47058359 32.71514138 16.9672767 36.25 25.625 C37.2814312 28.13848932 38.31369711 30.65161396 39.34765625 33.1640625 C39.62539383 33.83930969 39.90313141 34.51455688 40.18928528 35.21026611 C42.67686282 41.24459331 45.20899963 47.25979091 47.74609375 53.2734375 C48.57068283 55.23093815 49.39522704 57.18845772 50.21972656 59.14599609 C51.44934435 62.06501816 52.68044998 64.98336448 53.91638184 67.89971924 C55.07733114 70.63974089 56.23253474 73.38212313 57.38671875 76.125 C57.73721786 76.94777435 58.08771698 77.77054871 58.44883728 78.61825562 C58.77082596 79.38618439 59.09281464 80.15411316 59.42456055 80.9453125 C59.84659004 81.94328857 59.84659004 81.94328857 60.27714539 82.96142578 C61 85 61 85 62 90 C53.42 90 44.84 90 36 90 C35.01 87.586875 34.02 85.17375 33 82.6875 C32.68675781 81.93170654 32.37351562 81.17591309 32.05078125 80.3972168 C30.85629156 77.44772788 30 75.2102388 30 72 C18.45 72 6.9 72 -5 72 C-5.99 75.3 -6.98 78.6 -8 82 C-8.99 84.64 -9.98 87.28 -11 90 C-19.58 90 -28.16 90 -37 90 C-35.01993193 84.0597958 -32.99200646 78.31428342 -30.5859375 72.55859375 C-30.09487267 71.37390503 -30.09487267 71.37390503 -29.59388733 70.1652832 C-28.52424957 67.58795914 -27.44981503 65.01266883 -26.375 62.4375 C-25.6262927 60.63748892 -24.87767761 58.83743949 -24.12915039 57.03735352 C-16.19352825 37.97943288 -8.10755318 18.98527158 0 0 Z M12 27 C10.49172203 30.76757497 8.99481006 34.53956349 7.5 38.3125 C7.07074219 39.38435547 6.64148437 40.45621094 6.19921875 41.56054688 C5.59013672 43.10258789 5.59013672 43.10258789 4.96875 44.67578125 C4.40317383 46.0975769 4.40317383 46.0975769 3.82617188 47.5480957 C2.84034418 50.04259941 2.84034418 50.04259941 3 53 C9.27 53 15.54 53 22 53 C19.50556932 44.13091313 16.29501074 35.59475294 13 27 C12.67 27 12.34 27 12 27 Z " fill="#1D1D1B" transform="translate(1860,133)"/>
<path d="M0 0 C1.5631897 0.00785522 1.5631897 0.00785522 3.15795898 0.01586914 C4.28266602 0.0190918 5.40737305 0.02231445 6.56616211 0.02563477 C7.75016602 0.03401367 8.93416992 0.04239258 10.15405273 0.05102539 C11.34192383 0.05553711 12.52979492 0.06004883 13.75366211 0.06469727 C16.69967499 0.07652864 19.64558954 0.09301252 22.59155273 0.11352539 C30.85910068 19.25253658 38.94098543 38.46410673 46.93231201 57.71987915 C48.86519284 62.37449608 50.81150266 67.02319118 52.76733398 71.66821289 C53.23896973 72.79066406 53.71060547 73.91311523 54.1965332 75.06958008 C55.06127901 77.1260844 55.92863846 79.18149241 56.79907227 81.2355957 C57.17273926 82.12601562 57.54640625 83.01643555 57.93139648 83.93383789 C58.25487061 84.69970215 58.57834473 85.46556641 58.91162109 86.25463867 C59.59155273 88.11352539 59.59155273 88.11352539 59.59155273 90.11352539 C51.01155273 90.11352539 42.43155273 90.11352539 33.59155273 90.11352539 C32.60155273 87.70040039 31.61155273 85.28727539 30.59155273 82.80102539 C30.27831055 82.04523193 29.96506836 81.28943848 29.64233398 80.51074219 C28.4478443 77.56125327 27.59155273 75.32376419 27.59155273 72.11352539 C10.26655273 72.60852539 10.26655273 72.60852539 -7.40844727 73.11352539 C-9.38844727 78.39352539 -11.36844727 83.67352539 -13.40844727 89.11352539 C-14.40844727 90.11352539 -14.40844727 90.11352539 -16.81689453 90.22705078 C-17.859021 90.22181396 -18.90114746 90.21657715 -19.97485352 90.21118164 C-21.09956055 90.20795898 -22.22426758 90.20473633 -23.38305664 90.20141602 C-24.56706055 90.19303711 -25.75106445 90.1846582 -26.97094727 90.17602539 C-28.15881836 90.17151367 -29.34668945 90.16700195 -30.57055664 90.16235352 C-33.51656953 90.15052214 -36.46248407 90.13403826 -39.40844727 90.11352539 C-37.05484967 81.19510385 -33.48183975 72.92989676 -29.82861328 64.48660278 C-27.92276534 60.08087842 -26.03432355 55.66771979 -24.14672852 51.25415039 C-23.56316086 49.89055138 -23.56316086 49.89055138 -22.96780396 48.49940491 C-17.94774737 36.73708301 -13.13339731 24.8900816 -8.32373047 13.04052734 C-7.99951614 12.24426941 -7.67530182 11.44801147 -7.34126282 10.62762451 C-6.73423954 9.1364839 -6.12937731 7.64446112 -5.52702332 6.15142822 C-3.08068269 0.14521211 -3.08068269 0.14521211 0 0 Z M9.59155273 27.11352539 C5.90511337 35.67861429 2.67045182 44.31667086 -0.40844727 53.11352539 C6.19155273 53.11352539 12.79155273 53.11352539 19.59155273 53.11352539 C17.09712205 44.24443852 13.88656348 35.70827833 10.59155273 27.11352539 C10.26155273 27.11352539 9.93155273 27.11352539 9.59155273 27.11352539 Z " fill="#1D1D1B" transform="translate(983.408447265625,132.886474609375)"/>
<path d="M0 0 C12.21 0 24.42 0 37 0 C37 38.94 37 77.88 37 118 C24.79 118 12.58 118 0 118 C0 79.06 0 40.12 0 0 Z " fill="#1D1D1B" transform="translate(371,257)"/>
<path d="M0 0 C8.91 0 17.82 0 27 0 C28.50433594 3.81433594 30.00867187 7.62867188 31.55859375 11.55859375 C32.75689465 14.59267128 33.95571901 17.6265408 35.1548996 20.66027069 C36.42209308 23.86648415 37.68835343 27.07305907 38.95239258 30.28051758 C40.40158775 33.95767988 41.85496997 37.63317974 43.30859375 41.30859375 C43.98987587 43.03981728 43.98987587 43.03981728 44.68492126 44.80601501 C45.31546165 46.3975515 45.31546165 46.3975515 45.95874023 48.02124023 C46.32958237 48.96055893 46.7004245 49.89987762 47.08250427 50.86766052 C47.81958564 52.94293684 47.81958564 52.94293684 49 54 C49.39130348 53.02947189 49.39130348 53.02947189 49.79051208 52.03933716 C52.24697145 45.94714144 54.70422265 39.85526579 57.16236782 33.76375008 C58.42614825 30.63190208 59.68962023 27.49993039 60.95239258 24.36767578 C62.40368549 20.76824182 63.85603325 17.16923508 65.30859375 13.5703125 C65.76278183 12.44319855 66.21696991 11.31608459 66.68492126 10.15481567 C67.10528152 9.11388763 67.52564178 8.07295959 67.95874023 7.00048828 C68.32958237 6.08115509 68.7004245 5.1618219 69.08250427 4.21463013 C69.67324482 2.78871415 70.30975211 1.38049579 71 0 C79.25 0 87.5 0 96 0 C92.6246425 10.12607251 92.6246425 10.12607251 90.92211914 14.33496094 C90.54026459 15.28266357 90.15841003 16.23036621 89.76498413 17.20678711 C89.35914093 18.20589111 88.95329773 19.20499512 88.53515625 20.234375 C87.89013657 21.83116089 87.89013657 21.83116089 87.23208618 23.46020508 C85.84506423 26.89129387 84.45394265 30.32070188 83.0625 33.75 C82.11097647 36.10054242 81.15956074 38.45112848 80.20825195 40.80175781 C73.55226093 57.23462445 66.83518805 73.64083358 60 90 C52.08 90 44.16 90 36 90 C33.4356519 84.87130381 31.0400095 79.89264864 28.93139648 74.59350586 C28.65277771 73.90132462 28.37415894 73.20914337 28.08709717 72.49598694 C27.17861605 70.23685513 26.27485368 67.97586788 25.37109375 65.71484375 C24.73412791 64.12866174 24.09683904 62.54260941 23.45924377 60.9566803 C21.78887762 56.79970063 20.12240362 52.64117229 18.45690918 48.48223877 C15.78930881 41.82314032 13.11529078 35.16661511 10.44215584 28.50973701 C9.51335949 26.19536644 8.58593737 23.8804493 7.65879822 21.56541443 C7.08561622 20.13597038 6.51242053 18.70653182 5.93920898 17.27709961 C5.68510757 16.64158173 5.43100616 16.00606384 5.16920471 15.35128784 C3.93852159 12.28475689 2.6651544 9.24839907 1.31629944 6.23268127 C0 3 0 3 0 0 Z " fill="#1D1D1B" transform="translate(1034,133)"/>
<path d="M0 0 C7.42668172 5.89246777 12.32897594 12.1790815 14.13671875 21.6953125 C14.87528845 33.89591578 14.09149114 42.98885855 6.08984375 52.62109375 C-0.78696209 59.92426155 -7.91198304 63.69995155 -17.98266602 64.09814453 C-29.26351345 64.27152697 -37.4305347 62.04918956 -45.81640625 54.109375 C-53.60306676 44.92587081 -55.72497024 34.42385707 -54.86328125 22.6953125 C-52.99245574 11.93013858 -46.68778345 3.93703357 -37.86328125 -2.3046875 C-25.59091952 -8.49757984 -11.16550783 -8.06722555 0 0 Z " fill="#E30613" transform="translate(412.86328125,181.3046875)"/>
<path d="M0 0 C0 34.32 0 68.64 0 104 C-11.88 104 -23.76 104 -36 104 C-36 74.63 -36 45.26 -36 15 C-24.73048907 9.36524454 -24.73048907 9.36524454 -19.84375 7.32421875 C-18.8021875 6.88916016 -17.760625 6.45410156 -16.6875 6.00585938 C-15.635625 5.57080078 -14.58375 5.13574219 -13.5 4.6875 C-12.4171875 4.23310547 -11.334375 3.77871094 -10.21875 3.31054688 C-9.1875 2.88193359 -8.15625 2.45332031 -7.09375 2.01171875 C-6.16240234 1.62459717 -5.23105469 1.23747559 -4.27148438 0.83862305 C-2 0 -2 0 0 0 Z " fill="#1D1D1B" transform="translate(1922,328)"/>
<path d="M0 0 C0 34.32 0 68.64 0 104 C-11.55 104 -23.1 104 -35 104 C-35 74.63 -35 45.26 -35 15 C-27.32614209 11.16307105 -19.75152429 7.4713846 -11.875 4.125 C-10.94429687 3.7228125 -10.01359375 3.320625 -9.0546875 2.90625 C-8.1678125 2.52726562 -7.2809375 2.14828125 -6.3671875 1.7578125 C-5.57425293 1.4189502 -4.78131836 1.08008789 -3.96435547 0.73095703 C-2 0 -2 0 0 0 Z " fill="#1D1D1B" transform="translate(1009,328)"/>
<path d="M0 0 C7.92 0 15.84 0 24 0 C24 29.7 24 59.4 24 90 C16.08 90 8.16 90 0 90 C0 60.3 0 30.6 0 0 Z " fill="#1D1D1B" transform="translate(1590,133)"/>
<path d="M0 0 C11.88 0 23.76 0 36 0 C36 4.62 36 9.24 36 14 C27.46527153 18.37201349 18.8820802 22.58903652 10.125 26.5 C9.34656738 26.84998047 8.56813477 27.19996094 7.76611328 27.56054688 C2.24789361 30 2.24789361 30 0 30 C0 20.1 0 10.2 0 0 Z " fill="#1D1D1B" transform="translate(1886,302)"/>
<path d="M0 0 C11.55 0 23.1 0 35 0 C35 4.95 35 9.9 35 15 C30.17722098 17.13857014 25.35339462 19.27475288 20.52856445 21.40869141 C18.88601852 22.13556798 17.24376511 22.86310596 15.60180664 23.59130859 C13.24701587 24.63551445 10.89119686 25.6773678 8.53515625 26.71875 C7.79660904 27.04685669 7.05806183 27.37496338 6.2971344 27.7130127 C1.11387171 30 1.11387171 30 0 30 C0 20.1 0 10.2 0 0 Z " fill="#1D1D1B" transform="translate(974,302)"/>
<path d="M0 0 C4.46876455 3.07848225 8.07974831 6.73924494 9.8125 11.9375 C10.51016205 19.119988 10.20786204 24.11661514 5.8125 29.9375 C1.45422754 34.07227131 -2.14422157 35.77533505 -8.125 36.25 C-12.9604004 36.08670318 -16.39376256 34.75224139 -19.85546875 31.25 C-24.88577102 25.5147385 -25.60862135 21.98648226 -25.5234375 14.27734375 C-25.0378103 9.44930591 -23.63531486 6.34347245 -20.1875 2.9375 C-14.02579098 -1.76415188 -7.25139309 -2.41713103 0 0 Z M-22.1875 9.9375 C-24.16186212 13.88622424 -23.62579693 18.63366767 -23.1875 22.9375 C-21.03209619 27.32813739 -18.38913397 30.41651962 -14.1875 32.9375 C-9.50367969 34.32828956 -5.46574859 34.42600365 -0.9375 32.5 C3.43338684 29.94740208 5.99749056 26.64153823 7.8125 21.9375 C8.86727828 16.98350037 8.23328737 13.06311018 5.8125 8.625 C2.92614901 4.52850752 -0.43841999 2.42685645 -5.1875 0.9375 C-13.18676832 -0.18239756 -17.71165825 3.92708393 -22.1875 9.9375 Z " fill="#1D1D1B" transform="translate(721.1875,127.0625)"/>
<path d="M0 0 C12.470079 -0.37039839 12.470079 -0.37039839 14.89453125 1.32421875 C16.62064064 3.94082981 16.38086549 5.95307606 16 9 C14.5 10.875 14.5 10.875 13 12 C13.66 12.94875 14.32 13.8975 15 14.875 C17 18 17 18 17 20 C14.3125 20.4375 14.3125 20.4375 11 20 C9.41460283 18.32437697 8.27242786 16.59950596 7.078125 14.62890625 C6.08550102 12.83482322 6.08550102 12.83482322 4 12 C4 14.64 4 17.28 4 20 C2.68 20 1.36 20 0 20 C0 13.4 0 6.8 0 0 Z M4 4 C4 5.32 4 6.64 4 8 C5.98 8 7.96 8 10 8 C10 6.68 10 5.36 10 4 C8.02 4 6.04 4 4 4 Z " fill="#1D1D1B" transform="translate(706,134)"/>
</svg>
